<svg width="172" height="70" viewBox="0 0 172 70" fill="none" xmlns="http://www.w3.org/2000/svg">
<rect width="172" height="70" rx="6" fill="#282828"/>
<path d="M39.9966 45.92C38.4459 47.345 36.7527 47.12 35.1229 46.445C33.3981 45.755 31.8157 45.725 29.996 46.445C27.7174 47.375 26.5148 47.105 25.1539 45.92C17.4319 38.375 18.5712 26.885 27.3376 26.465C29.4738 26.57 30.9612 27.575 32.2113 27.665C34.0785 27.305 35.8666 26.27 37.8604 26.405C40.2498 26.585 42.0537 27.485 43.2405 29.105C38.3035 31.91 39.4744 38.075 44 39.8C43.098 42.05 41.9271 44.285 39.9808 45.935L39.9966 45.92ZM32.0531 26.375C31.8157 23.03 34.6798 20.27 37.9712 20C38.43 23.87 34.2684 26.75 32.0531 26.375Z" fill="white"/>
<path d="M66.028 21.632C66.028 22.592 65.848 23.396 65.488 24.044C65.136 24.692 64.628 25.18 63.964 25.508C63.3 25.836 62.496 26 61.552 26H59.164V17.432H61.804C62.668 17.432 63.416 17.592 64.048 17.912C64.68 18.232 65.168 18.704 65.512 19.328C65.856 19.944 66.028 20.712 66.028 21.632ZM64.888 21.668C64.888 20.908 64.76 20.284 64.504 19.796C64.256 19.308 63.888 18.948 63.4 18.716C62.92 18.476 62.336 18.356 61.648 18.356H60.244V25.076H61.408C62.568 25.076 63.436 24.792 64.012 24.224C64.596 23.648 64.888 22.796 64.888 21.668ZM73.3776 22.772C73.3776 23.308 73.3056 23.784 73.1616 24.2C73.0256 24.608 72.8256 24.956 72.5616 25.244C72.3056 25.532 71.9896 25.752 71.6136 25.904C71.2456 26.048 70.8336 26.12 70.3776 26.12C69.9536 26.12 69.5616 26.048 69.2016 25.904C68.8416 25.752 68.5296 25.532 68.2656 25.244C68.0016 24.956 67.7936 24.608 67.6416 24.2C67.4976 23.784 67.4256 23.308 67.4256 22.772C67.4256 22.06 67.5456 21.46 67.7856 20.972C68.0256 20.476 68.3696 20.1 68.8176 19.844C69.2656 19.58 69.7976 19.448 70.4136 19.448C70.9976 19.448 71.5096 19.58 71.9496 19.844C72.3976 20.1 72.7456 20.476 72.9936 20.972C73.2496 21.46 73.3776 22.06 73.3776 22.772ZM68.5176 22.772C68.5176 23.276 68.5816 23.716 68.7096 24.092C68.8456 24.46 69.0536 24.744 69.3336 24.944C69.6136 25.144 69.9696 25.244 70.4016 25.244C70.8336 25.244 71.1896 25.144 71.4696 24.944C71.7496 24.744 71.9536 24.46 72.0816 24.092C72.2176 23.716 72.2856 23.276 72.2856 22.772C72.2856 22.26 72.2176 21.824 72.0816 21.464C71.9456 21.104 71.7376 20.828 71.4576 20.636C71.1856 20.436 70.8296 20.336 70.3896 20.336C69.7336 20.336 69.2576 20.552 68.9616 20.984C68.6656 21.416 68.5176 22.012 68.5176 22.772ZM78.9689 22.364C78.9209 22.196 78.8729 22.032 78.8249 21.872C78.7769 21.704 78.7329 21.548 78.6929 21.404C78.6609 21.252 78.6289 21.112 78.5969 20.984C78.5649 20.856 78.5409 20.748 78.5249 20.66H78.4769C78.4609 20.748 78.4369 20.856 78.4049 20.984C78.3809 21.112 78.3489 21.252 78.3089 21.404C78.2769 21.556 78.2369 21.716 78.1889 21.884C78.1489 22.044 78.1009 22.208 78.0449 22.376L76.8929 25.988H75.6929L73.9289 19.556H75.0209L75.9089 22.988C75.9729 23.22 76.0329 23.456 76.0889 23.696C76.1449 23.928 76.1929 24.152 76.2329 24.368C76.2809 24.576 76.3129 24.756 76.3289 24.908H76.3769C76.4009 24.812 76.4289 24.692 76.4609 24.548C76.4929 24.404 76.5249 24.252 76.5569 24.092C76.5969 23.932 76.6369 23.772 76.6769 23.612C76.7249 23.452 76.7689 23.308 76.8089 23.18L77.9489 19.556H79.1009L80.2049 23.18C80.2609 23.364 80.3169 23.56 80.3729 23.768C80.4369 23.976 80.4929 24.18 80.5409 24.38C80.5889 24.572 80.6209 24.744 80.6369 24.896H80.6849C80.7009 24.76 80.7289 24.592 80.7689 24.392C80.8169 24.184 80.8689 23.96 80.9249 23.72C80.9889 23.472 81.0529 23.228 81.1169 22.988L82.0169 19.556H83.0969L81.3089 25.988H80.0729L78.9689 22.364ZM87.3465 19.448C88.1145 19.448 88.6945 19.636 89.0865 20.012C89.4785 20.38 89.6745 20.98 89.6745 21.812V26H88.6305V21.884C88.6305 21.364 88.5145 20.976 88.2825 20.72C88.0505 20.464 87.6865 20.336 87.1905 20.336C86.4785 20.336 85.9865 20.536 85.7145 20.936C85.4425 21.336 85.3065 21.912 85.3065 22.664V26H84.2505V19.568H85.1025L85.2585 20.444H85.3185C85.4625 20.22 85.6385 20.036 85.8465 19.892C86.0625 19.74 86.2985 19.628 86.5545 19.556C86.8105 19.484 87.0745 19.448 87.3465 19.448ZM92.7244 26H91.6684V16.88H92.7244V26ZM100.354 22.772C100.354 23.308 100.282 23.784 100.138 24.2C100.002 24.608 99.8022 24.956 99.5382 25.244C99.2822 25.532 98.9662 25.752 98.5902 25.904C98.2222 26.048 97.8102 26.12 97.3542 26.12C96.9302 26.12 96.5382 26.048 96.1782 25.904C95.8182 25.752 95.5062 25.532 95.2422 25.244C94.9782 24.956 94.7702 24.608 94.6182 24.2C94.4742 23.784 94.4022 23.308 94.4022 22.772C94.4022 22.06 94.5222 21.46 94.7622 20.972C95.0022 20.476 95.3462 20.1 95.7942 19.844C96.2422 19.58 96.7742 19.448 97.3902 19.448C97.9742 19.448 98.4862 19.58 98.9262 19.844C99.3742 20.1 99.7222 20.476 99.9702 20.972C100.226 21.46 100.354 22.06 100.354 22.772ZM95.4942 22.772C95.4942 23.276 95.5582 23.716 95.6862 24.092C95.8222 24.46 96.0302 24.744 96.3102 24.944C96.5902 25.144 96.9462 25.244 97.3782 25.244C97.8102 25.244 98.1662 25.144 98.4462 24.944C98.7262 24.744 98.9302 24.46 99.0582 24.092C99.1942 23.716 99.2622 23.276 99.2622 22.772C99.2622 22.26 99.1942 21.824 99.0582 21.464C98.9222 21.104 98.7142 20.828 98.4342 20.636C98.1622 20.436 97.8062 20.336 97.3662 20.336C96.7102 20.336 96.2342 20.552 95.9382 20.984C95.6422 21.416 95.4942 22.012 95.4942 22.772ZM104.464 19.46C105.248 19.46 105.828 19.632 106.204 19.976C106.58 20.32 106.768 20.868 106.768 21.62V26H106L105.796 25.088H105.748C105.564 25.32 105.372 25.516 105.172 25.676C104.98 25.828 104.756 25.94 104.5 26.012C104.252 26.084 103.948 26.12 103.588 26.12C103.204 26.12 102.856 26.052 102.544 25.916C102.24 25.78 102 25.572 101.824 25.292C101.648 25.004 101.56 24.644 101.56 24.212C101.56 23.572 101.812 23.08 102.316 22.736C102.82 22.384 103.596 22.192 104.644 22.16L105.736 22.124V21.74C105.736 21.204 105.62 20.832 105.388 20.624C105.156 20.416 104.828 20.312 104.404 20.312C104.068 20.312 103.748 20.364 103.444 20.468C103.14 20.564 102.856 20.676 102.592 20.804L102.268 20.012C102.548 19.86 102.88 19.732 103.264 19.628C103.648 19.516 104.048 19.46 104.464 19.46ZM104.776 22.892C103.976 22.924 103.42 23.052 103.108 23.276C102.804 23.5 102.652 23.816 102.652 24.224C102.652 24.584 102.76 24.848 102.976 25.016C103.2 25.184 103.484 25.268 103.828 25.268C104.372 25.268 104.824 25.12 105.184 24.824C105.544 24.52 105.724 24.056 105.724 23.432V22.856L104.776 22.892ZM111.034 26.12C110.234 26.12 109.594 25.844 109.114 25.292C108.634 24.732 108.394 23.9 108.394 22.796C108.394 21.692 108.634 20.86 109.114 20.3C109.602 19.732 110.246 19.448 111.046 19.448C111.382 19.448 111.674 19.492 111.922 19.58C112.17 19.66 112.386 19.772 112.57 19.916C112.754 20.06 112.91 20.22 113.038 20.396H113.11C113.102 20.292 113.086 20.14 113.062 19.94C113.046 19.732 113.038 19.568 113.038 19.448V16.88H114.094V26H113.242L113.086 25.136H113.038C112.91 25.32 112.754 25.488 112.57 25.64C112.386 25.784 112.166 25.9 111.91 25.988C111.662 26.076 111.37 26.12 111.034 26.12ZM111.202 25.244C111.882 25.244 112.358 25.06 112.63 24.692C112.91 24.316 113.05 23.752 113.05 23V22.808C113.05 22.008 112.918 21.396 112.654 20.972C112.39 20.54 111.902 20.324 111.19 20.324C110.622 20.324 110.194 20.552 109.906 21.008C109.626 21.456 109.486 22.06 109.486 22.82C109.486 23.588 109.626 24.184 109.906 24.608C110.194 25.032 110.626 25.244 111.202 25.244ZM124.846 22.772C124.846 23.308 124.774 23.784 124.63 24.2C124.494 24.608 124.294 24.956 124.03 25.244C123.774 25.532 123.458 25.752 123.082 25.904C122.714 26.048 122.302 26.12 121.846 26.12C121.422 26.12 121.03 26.048 120.67 25.904C120.31 25.752 119.998 25.532 119.734 25.244C119.47 24.956 119.262 24.608 119.11 24.2C118.966 23.784 118.894 23.308 118.894 22.772C118.894 22.06 119.014 21.46 119.254 20.972C119.494 20.476 119.838 20.1 120.286 19.844C120.734 19.58 121.266 19.448 121.882 19.448C122.466 19.448 122.978 19.58 123.418 19.844C123.866 20.1 124.214 20.476 124.462 20.972C124.718 21.46 124.846 22.06 124.846 22.772ZM119.986 22.772C119.986 23.276 120.05 23.716 120.178 24.092C120.314 24.46 120.522 24.744 120.802 24.944C121.082 25.144 121.438 25.244 121.87 25.244C122.302 25.244 122.658 25.144 122.938 24.944C123.218 24.744 123.422 24.46 123.55 24.092C123.686 23.716 123.754 23.276 123.754 22.772C123.754 22.26 123.686 21.824 123.55 21.464C123.414 21.104 123.206 20.828 122.926 20.636C122.654 20.436 122.298 20.336 121.858 20.336C121.202 20.336 120.726 20.552 120.43 20.984C120.134 21.416 119.986 22.012 119.986 22.772ZM129.616 19.448C130.384 19.448 130.964 19.636 131.356 20.012C131.748 20.38 131.944 20.98 131.944 21.812V26H130.9V21.884C130.9 21.364 130.784 20.976 130.552 20.72C130.32 20.464 129.956 20.336 129.46 20.336C128.748 20.336 128.256 20.536 127.984 20.936C127.712 21.336 127.576 21.912 127.576 22.664V26H126.52V19.568H127.372L127.528 20.444H127.588C127.732 20.22 127.908 20.036 128.116 19.892C128.332 19.74 128.568 19.628 128.824 19.556C129.08 19.484 129.344 19.448 129.616 19.448ZM139.203 25.256C139.363 25.256 139.527 25.244 139.695 25.22C139.863 25.188 139.999 25.156 140.103 25.124V25.928C139.991 25.984 139.831 26.028 139.623 26.06C139.415 26.1 139.215 26.12 139.023 26.12C138.687 26.12 138.375 26.064 138.087 25.952C137.807 25.832 137.579 25.628 137.403 25.34C137.227 25.052 137.139 24.648 137.139 24.128V20.384H136.227V19.88L137.151 19.46L137.571 18.092H138.195V19.568H140.055V20.384H138.195V24.104C138.195 24.496 138.287 24.788 138.471 24.98C138.663 25.164 138.907 25.256 139.203 25.256ZM142.447 19.556C142.447 19.708 142.439 19.864 142.423 20.024C142.415 20.184 142.403 20.328 142.387 20.456H142.459C142.595 20.232 142.767 20.048 142.975 19.904C143.183 19.76 143.415 19.652 143.671 19.58C143.927 19.5 144.191 19.46 144.463 19.46C144.983 19.46 145.415 19.544 145.759 19.712C146.111 19.872 146.375 20.124 146.551 20.468C146.727 20.812 146.815 21.26 146.815 21.812V26H145.771V21.884C145.771 21.364 145.655 20.976 145.423 20.72C145.191 20.464 144.827 20.336 144.331 20.336C143.851 20.336 143.475 20.428 143.203 20.612C142.931 20.788 142.735 21.052 142.615 21.404C142.503 21.748 142.447 22.172 142.447 22.676V26H141.391V16.88H142.447V19.556ZM151.293 19.448C151.845 19.448 152.317 19.568 152.709 19.808C153.109 20.048 153.413 20.388 153.621 20.828C153.837 21.26 153.945 21.768 153.945 22.352V22.988H149.541C149.557 23.716 149.741 24.272 150.093 24.656C150.453 25.032 150.953 25.22 151.593 25.22C152.001 25.22 152.361 25.184 152.673 25.112C152.993 25.032 153.321 24.92 153.657 24.776V25.7C153.329 25.844 153.005 25.948 152.685 26.012C152.365 26.084 151.985 26.12 151.545 26.12C150.937 26.12 150.397 25.996 149.925 25.748C149.461 25.5 149.097 25.132 148.833 24.644C148.577 24.148 148.449 23.544 148.449 22.832C148.449 22.128 148.565 21.524 148.797 21.02C149.037 20.516 149.369 20.128 149.793 19.856C150.225 19.584 150.725 19.448 151.293 19.448ZM151.281 20.312C150.777 20.312 150.377 20.476 150.081 20.804C149.793 21.124 149.621 21.572 149.565 22.148H152.841C152.841 21.78 152.785 21.46 152.673 21.188C152.561 20.916 152.389 20.704 152.157 20.552C151.933 20.392 151.641 20.312 151.281 20.312Z" fill="white"/>
<path d="M69.214 51L67.849 47.031H62.2L60.856 51H58L63.502 35.943H66.568L72.07 51H69.214ZM65.854 40.857C65.798 40.661 65.714 40.395 65.602 40.059C65.49 39.723 65.378 39.38 65.266 39.03C65.168 38.666 65.091 38.365 65.035 38.127C64.965 38.407 64.874 38.729 64.762 39.093C64.664 39.457 64.566 39.8 64.468 40.122C64.384 40.444 64.314 40.689 64.258 40.857L62.935 44.721H67.156L65.854 40.857ZM79.7749 39.408C81.1049 39.408 82.1759 39.905 82.9879 40.899C83.7999 41.879 84.2059 43.342 84.2059 45.288C84.2059 46.576 84.0169 47.661 83.6389 48.543C83.2609 49.425 82.7359 50.09 82.0639 50.538C81.3919 50.986 80.6079 51.21 79.7119 51.21C79.1659 51.21 78.6829 51.14 78.2629 51C77.8429 50.846 77.4859 50.657 77.1919 50.433C76.8979 50.195 76.6459 49.943 76.4359 49.677H76.2679C76.3239 49.929 76.3659 50.216 76.3939 50.538C76.4219 50.846 76.4359 51.14 76.4359 51.42V56.04H73.7899V39.618H75.9319L76.3099 41.13H76.4359C76.6459 40.808 76.8979 40.521 77.1919 40.269C77.4999 40.003 77.8639 39.793 78.2839 39.639C78.7179 39.485 79.2149 39.408 79.7749 39.408ZM79.0189 41.55C78.4029 41.55 77.9059 41.676 77.5279 41.928C77.1499 42.166 76.8769 42.537 76.7089 43.041C76.5409 43.545 76.4499 44.175 76.4359 44.931V45.267C76.4359 46.079 76.5129 46.765 76.6669 47.325C76.8349 47.885 77.1079 48.312 77.4859 48.606C77.8779 48.9 78.4029 49.047 79.0609 49.047C79.6209 49.047 80.0759 48.893 80.4259 48.585C80.7899 48.277 81.0559 47.843 81.2239 47.283C81.4059 46.709 81.4969 46.03 81.4969 45.246C81.4969 44.07 81.2939 43.16 80.8879 42.516C80.4959 41.872 79.8729 41.55 79.0189 41.55ZM92.9204 39.408C94.2504 39.408 95.3214 39.905 96.1334 40.899C96.9454 41.879 97.3514 43.342 97.3514 45.288C97.3514 46.576 97.1624 47.661 96.7844 48.543C96.4064 49.425 95.8814 50.09 95.2094 50.538C94.5374 50.986 93.7534 51.21 92.8574 51.21C92.3114 51.21 91.8284 51.14 91.4084 51C90.9884 50.846 90.6314 50.657 90.3374 50.433C90.0434 50.195 89.7914 49.943 89.5814 49.677H89.4134C89.4694 49.929 89.5114 50.216 89.5394 50.538C89.5674 50.846 89.5814 51.14 89.5814 51.42V56.04H86.9354V39.618H89.0774L89.4554 41.13H89.5814C89.7914 40.808 90.0434 40.521 90.3374 40.269C90.6454 40.003 91.0094 39.793 91.4294 39.639C91.8634 39.485 92.3604 39.408 92.9204 39.408ZM92.1644 41.55C91.5484 41.55 91.0514 41.676 90.6734 41.928C90.2954 42.166 90.0224 42.537 89.8544 43.041C89.6864 43.545 89.5954 44.175 89.5814 44.931V45.267C89.5814 46.079 89.6584 46.765 89.8124 47.325C89.9804 47.885 90.2534 48.312 90.6314 48.606C91.0234 48.9 91.5484 49.047 92.2064 49.047C92.7664 49.047 93.2214 48.893 93.5714 48.585C93.9354 48.277 94.2014 47.843 94.3694 47.283C94.5514 46.709 94.6424 46.03 94.6424 45.246C94.6424 44.07 94.4394 43.16 94.0334 42.516C93.6414 41.872 93.0184 41.55 92.1644 41.55ZM114.503 46.905C114.503 47.787 114.286 48.55 113.852 49.194C113.418 49.838 112.788 50.335 111.962 50.685C111.15 51.035 110.177 51.21 109.043 51.21C108.497 51.21 107.972 51.175 107.468 51.105C106.978 51.049 106.509 50.958 106.061 50.832C105.627 50.706 105.221 50.552 104.843 50.37V47.85C105.473 48.13 106.166 48.389 106.922 48.627C107.678 48.851 108.448 48.963 109.232 48.963C109.834 48.963 110.324 48.886 110.702 48.732C111.094 48.564 111.381 48.34 111.563 48.06C111.745 47.766 111.836 47.43 111.836 47.052C111.836 46.632 111.717 46.275 111.479 45.981C111.241 45.687 110.891 45.414 110.429 45.162C109.967 44.91 109.393 44.644 108.707 44.364C108.245 44.168 107.79 43.951 107.342 43.713C106.908 43.461 106.516 43.16 106.166 42.81C105.816 42.46 105.536 42.047 105.326 41.571C105.116 41.095 105.011 40.535 105.011 39.891C105.011 39.037 105.214 38.302 105.62 37.686C106.04 37.07 106.621 36.601 107.363 36.279C108.119 35.957 108.994 35.796 109.988 35.796C110.786 35.796 111.535 35.88 112.235 36.048C112.935 36.216 113.628 36.454 114.314 36.762L113.453 38.925C112.837 38.659 112.242 38.449 111.668 38.295C111.094 38.141 110.506 38.064 109.904 38.064C109.428 38.064 109.022 38.141 108.686 38.295C108.35 38.435 108.098 38.638 107.93 38.904C107.762 39.17 107.678 39.478 107.678 39.828C107.678 40.234 107.783 40.577 107.993 40.857C108.203 41.137 108.525 41.403 108.959 41.655C109.407 41.893 109.981 42.166 110.681 42.474C111.493 42.824 112.179 43.188 112.739 43.566C113.299 43.944 113.733 44.399 114.041 44.931C114.349 45.463 114.503 46.121 114.503 46.905ZM121.492 49.089C121.828 49.089 122.15 49.061 122.458 49.005C122.766 48.935 123.053 48.858 123.319 48.774V50.748C123.039 50.874 122.675 50.979 122.227 51.063C121.779 51.161 121.31 51.21 120.82 51.21C120.176 51.21 119.588 51.105 119.056 50.895C118.538 50.671 118.118 50.293 117.796 49.761C117.488 49.229 117.334 48.487 117.334 47.535V41.613H115.801V40.458L117.481 39.534L118.321 37.119H119.98V39.618H123.214V41.613H119.98V47.514C119.98 48.046 120.12 48.445 120.4 48.711C120.68 48.963 121.044 49.089 121.492 49.089ZM135.777 45.288C135.777 46.24 135.651 47.08 135.399 47.808C135.147 48.536 134.783 49.159 134.307 49.677C133.845 50.181 133.271 50.566 132.585 50.832C131.913 51.084 131.164 51.21 130.338 51.21C129.554 51.21 128.833 51.084 128.175 50.832C127.517 50.566 126.943 50.181 126.453 49.677C125.977 49.159 125.606 48.536 125.34 47.808C125.074 47.08 124.941 46.24 124.941 45.288C124.941 44.028 125.158 42.964 125.592 42.096C126.026 41.214 126.649 40.549 127.461 40.101C128.287 39.639 129.26 39.408 130.38 39.408C131.444 39.408 132.375 39.639 133.173 40.101C133.985 40.549 134.622 41.214 135.084 42.096C135.546 42.964 135.777 44.028 135.777 45.288ZM127.65 45.288C127.65 46.086 127.741 46.772 127.923 47.346C128.119 47.906 128.413 48.333 128.805 48.627C129.211 48.921 129.729 49.068 130.359 49.068C131.003 49.068 131.521 48.921 131.913 48.627C132.319 48.333 132.613 47.906 132.795 47.346C132.977 46.772 133.068 46.086 133.068 45.288C133.068 44.476 132.97 43.797 132.774 43.251C132.592 42.691 132.298 42.271 131.892 41.991C131.5 41.697 130.989 41.55 130.359 41.55C129.407 41.55 128.714 41.872 128.28 42.516C127.86 43.16 127.65 44.084 127.65 45.288ZM144.477 39.408C144.645 39.408 144.841 39.415 145.065 39.429C145.289 39.443 145.478 39.471 145.632 39.513L145.401 41.97C145.275 41.942 145.107 41.921 144.897 41.907C144.701 41.879 144.526 41.865 144.372 41.865C143.952 41.865 143.546 41.935 143.154 42.075C142.776 42.201 142.433 42.397 142.125 42.663C141.831 42.915 141.593 43.244 141.411 43.65C141.243 44.056 141.159 44.539 141.159 45.099V51H138.513V39.618H140.55L140.928 41.592H141.054C141.278 41.186 141.558 40.822 141.894 40.5C142.23 40.164 142.615 39.898 143.049 39.702C143.497 39.506 143.973 39.408 144.477 39.408ZM151.909 39.408C152.931 39.408 153.806 39.618 154.534 40.038C155.276 40.444 155.85 41.032 156.256 41.802C156.662 42.558 156.865 43.482 156.865 44.574V45.918H149.347C149.375 46.954 149.662 47.759 150.208 48.333C150.754 48.893 151.51 49.173 152.476 49.173C153.218 49.173 153.876 49.103 154.45 48.963C155.038 48.809 155.64 48.592 156.256 48.312V50.433C155.696 50.699 155.115 50.895 154.513 51.021C153.911 51.147 153.19 51.21 152.35 51.21C151.244 51.21 150.257 51 149.389 50.58C148.535 50.146 147.863 49.495 147.373 48.627C146.897 47.759 146.659 46.681 146.659 45.393C146.659 44.091 146.876 42.999 147.31 42.117C147.758 41.221 148.374 40.549 149.158 40.101C149.942 39.639 150.859 39.408 151.909 39.408ZM151.909 41.361C151.209 41.361 150.635 41.592 150.187 42.054C149.753 42.502 149.494 43.174 149.41 44.07H154.303C154.303 43.538 154.212 43.069 154.03 42.663C153.862 42.257 153.603 41.942 153.253 41.718C152.903 41.48 152.455 41.361 151.909 41.361Z" fill="white"/>
</svg>
