<svg width="132" height="82" viewBox="0 0 132 82" fill="none" xmlns="http://www.w3.org/2000/svg">
<g opacity="0.6">
<path d="M91.2181 51.903C89.873 52.9694 86.6382 55.2255 82.44 57.0595C78.2694 58.9321 73.1581 60.3193 68.9919 60.9459C66.5896 61.3267 64.1295 61.5653 61.6305 61.6455C60.3842 61.6876 59.1385 61.6596 57.8894 61.6647C56.6405 61.6557 55.3831 61.5638 54.1346 61.5129C49.1076 61.1964 44.0636 60.439 39.0667 59.3725C29.0604 57.2318 19.3045 53.9081 9.76728 50.2916C6.78199 49.1631 1.70943 47.3084 2.15147 46.0131C2.60971 44.6645 6.20214 45.1022 11.3742 46.9912C17.638 49.2771 23.9151 51.4868 30.2342 53.2854C36.5436 55.1132 42.9177 56.4526 49.1718 57.0606C53.7324 57.4859 58.2839 57.5953 62.6432 57.2946C66.9967 56.9619 71.2274 56.15 75.1884 54.8724C79.1464 53.5857 82.8503 51.8361 86.1098 49.6097C89.363 47.3793 92.1721 44.6581 94.2336 41.4742C96.1072 38.6307 97.3325 35.4009 97.876 31.9754C98.0011 31.1017 98.1164 30.2712 98.1133 29.4227C98.1195 28.573 98.0728 27.7112 97.9416 26.8599C97.6729 25.1672 97.1106 23.4876 96.1512 22.1369C95.2231 20.7776 93.8915 19.7714 92.37 19.2737C90.8487 18.762 89.1094 18.7624 87.5125 19.1556C86.7141 19.3522 85.949 19.6473 85.2485 20.0183C84.8967 20.2064 84.5636 20.4061 84.2517 20.6546C83.943 20.8979 83.6003 21.1128 83.3132 21.3769C82.137 22.4224 81.2884 23.7726 80.6852 25.2418C78.4785 30.8317 80.5862 38.5054 85.7977 43.3467C88.4277 45.825 91.7359 47.6925 95.2142 48.8486C96.9563 49.4496 98.7416 49.8028 100.525 50.0629C102.308 50.3089 104.079 50.3281 105.809 50.2449C108.797 50.0203 111.593 49.3718 114.108 48.1235C116.61 46.8955 118.87 45.2543 120.697 43.2281C122.546 41.2226 124.045 38.8917 125.119 36.3429C125.686 35.0835 126.088 33.7418 126.456 32.3857C126.768 31.0085 127.039 29.627 127.148 28.1862C127.288 26.8349 127.23 25.3029 127.1 23.733C126.955 22.1604 126.708 20.5445 126.472 19.0064C126.119 16.4567 124.982 12.18 124.17 9.63097C123.839 8.53383 123.464 7.38136 122.976 6.32688C121.832 3.90756 121.14 2.37921 121.093 1.57346C121.042 0.772778 121.608 0.698184 122.826 1.30806C123.363 1.58219 123.622 1.03245 124.455 2.18417C124.486 2.23168 124.557 2.32555 124.587 2.37307C127.319 5.86034 128.386 9.91707 129.469 13.8925C130.818 18.796 131.499 23.7959 131.206 28.6411C130.921 33.4991 129.574 38.148 127.175 42.1991C124.783 46.2402 121.294 49.7124 116.798 51.9517C114.568 53.0761 112.046 53.8821 109.4 54.279C106.757 54.6849 103.983 54.7197 101.186 54.3936C99.4706 54.2184 97.7418 53.8303 96.0231 53.385C94.3144 52.8685 92.6066 52.2819 90.9572 51.4922C87.6642 49.9447 84.521 47.8423 81.9993 45.164C79.4403 42.4763 77.5886 39.3515 76.4932 36.1658C75.4292 32.9716 75.0747 29.7084 75.4961 26.6012C75.7738 24.9204 76.167 23.2346 76.9737 21.717C77.3134 20.9287 77.8518 20.2372 78.3591 19.5402C78.6097 19.1827 78.9594 18.9016 79.2627 18.5843C79.5845 18.2787 79.8816 17.9574 80.2684 17.7138L80.218 17.7526C81.6177 16.5442 83.3644 15.5821 85.3314 15.0406C87.3014 14.508 89.5578 14.3318 91.9563 14.8657C94.2208 15.3789 96.5619 16.5962 98.2731 18.2925C100.041 19.9818 101.134 21.9737 101.825 23.8754C102.478 25.7816 102.798 27.6545 102.834 29.4551C102.871 30.3601 102.815 31.2486 102.736 32.1165C102.618 32.9521 102.531 33.7931 102.34 34.6049C102.026 36.2483 101.543 37.8285 100.933 39.3358C100.342 40.8548 99.5863 42.2775 98.7439 43.6316C97.0592 46.3398 94.9258 48.6743 92.5774 50.6763C92.2306 50.9803 91.7881 51.4641 91.2181 51.903Z" fill="#5272FB"/>
<path d="M23.8949 59.0082C25.2691 59.8365 30.1142 62.7828 33.2542 64.6011C40.5303 68.8282 47.8034 73.0324 54.8949 77.5668C56.0019 78.2696 57.9351 79.3788 57.2603 80.5489C56.5568 81.7646 54.8614 81.7502 52.8946 80.5706C48.1329 77.712 43.4515 74.6428 38.5554 72.0807C31.3927 68.334 24.5325 64.0648 17.5734 59.9804C14.4429 58.147 11.3378 56.2731 8.23902 54.3891C7.45737 53.9119 6.70657 53.4683 5.87546 52.946C5.05373 52.4225 4.18889 51.8437 3.34133 51.1135C2.92065 50.7503 2.50043 50.3451 2.11502 49.8983C1.70177 49.427 1.34512 48.9207 1.05746 48.3872C0.488351 47.324 0.0804032 46.0871 0.326221 44.746C0.419063 44.2541 0.620989 43.7814 0.912767 43.3722C1.27113 42.8708 1.76548 42.4973 2.27419 42.2385C2.78289 41.9798 3.30293 41.8269 3.79738 41.7285C4.7831 41.5367 5.69193 41.5224 6.51619 41.5325L11.1024 41.6142C14.1369 41.6731 17.1806 41.7448 20.2266 41.8955C25.7663 42.1673 31.3488 42.7976 36.8996 43.1892C38.2069 43.2842 39.7391 43.0903 41.1714 43.1792C42.354 43.2523 44.3295 43.358 45.5141 43.5382C46.0285 43.6146 46.5583 43.7077 47.052 43.6793C49.2924 43.5425 49.9671 44.0935 49.4404 45.7024C49.3209 46.0577 49.5873 46.5425 49.0758 46.7643C49.0539 46.7717 49.0131 46.7954 48.9911 46.8027C47.4697 47.723 45.6895 47.1827 43.9696 47.1246C35.5292 46.8428 27.0743 46.4601 18.6283 46.1183L10.8474 45.7783L8.90597 45.701C8.26918 45.6817 7.57943 45.6503 7.01117 45.6459C6.43353 45.6426 5.90867 45.6655 5.5112 45.7473C5.10753 45.8251 4.87497 45.9611 4.82094 46.0471C4.79885 46.0685 4.80171 46.0915 4.7952 46.1156C4.80366 46.1985 4.82816 46.2421 4.89136 46.4582C4.95169 46.6513 5.06102 46.9317 5.17943 47.2389L5.1764 47.2299C5.29316 47.4021 5.42265 47.554 5.58329 47.7114C5.75937 47.8855 5.96039 48.0613 6.17701 48.2397C6.62281 48.5904 7.14971 48.9498 7.73878 49.3341C8.29063 49.6951 8.92659 50.0736 9.5842 50.4728C10.2356 50.868 10.884 51.2544 11.5354 51.6496C12.8445 52.4301 14.1599 53.2144 15.4628 53.991C18.0749 55.548 20.6559 57.0995 23.1059 58.6252C23.314 58.7348 23.6126 58.8378 23.8949 59.0082Z" fill="#5272FB"/>
</g>
</svg>
