<svg width="72" height="72" viewBox="0 0 72 72" fill="none" xmlns="http://www.w3.org/2000/svg">
<g filter="url(#filter0_f_9_68)">
<circle cx="36" cy="36" r="35" fill="#5272FB" fill-opacity="0.2"/>
</g>
<g filter="url(#filter1_d_9_68)">
<path d="M44.738 22.6548C44.2697 22.1864 43.7137 21.8149 43.1019 21.5614C42.49 21.308 41.8342 21.1775 41.1719 21.1775C40.5096 21.1775 39.8538 21.308 39.2419 21.5614C38.6301 21.8149 38.0741 22.1864 37.6058 22.6548L23.9418 36.3188C23.8293 36.4319 23.7445 36.5696 23.6943 36.721L21.1161 44.4554C21.0579 44.6305 21.0478 44.8181 21.0867 44.9986C21.1257 45.179 21.2124 45.3456 21.3378 45.4811C21.4632 45.6166 21.6226 45.716 21.7995 45.7688C21.9764 45.8217 22.1642 45.8261 22.3433 45.7816L30.5933 43.7191C30.7751 43.6743 30.9412 43.5809 31.0739 43.4489L42.7188 31.8019L42.8961 31.9793C43.2828 32.3661 43.5 32.8906 43.5 33.4375C43.5 33.9844 43.2828 34.5089 42.8961 34.8957L39.9261 37.8657C39.7328 38.0593 39.6243 38.3219 39.6244 38.5955C39.6246 38.8692 39.7335 39.1315 39.9272 39.3249C40.1208 39.5183 40.3833 39.6268 40.657 39.6266C40.9307 39.6264 41.193 39.5175 41.3864 39.3239L44.3543 36.3539C45.1276 35.5803 45.5621 34.5313 45.5621 33.4375C45.5621 32.3437 45.1276 31.2947 44.3543 30.5211L44.177 30.3438L44.738 29.7848C45.6832 28.8392 46.2142 27.5568 46.2142 26.2198C46.2142 24.8827 45.6832 23.6004 44.738 22.6548ZM29.2445 49.9375C26.6973 49.9375 24.6905 48.7701 23.356 47.6543L26.0043 46.9943C26.9897 47.562 28.1052 47.8653 29.2424 47.875C30.0798 47.875 30.9419 47.5368 31.8618 46.9324C32.7837 46.3281 33.6726 45.5155 34.5719 44.674L34.805 44.4533C35.599 43.7088 36.422 42.9333 37.2098 42.3991C38.0513 41.8257 39.1692 41.3059 40.3386 41.7576C41.1141 42.0546 41.6174 42.6033 41.9701 43.2756C42.3021 43.9068 42.5311 44.6946 42.7538 45.5547C42.857 45.9466 43.0281 46.3261 43.2282 46.5818C43.2925 46.6719 43.3721 46.7501 43.4633 46.8128C43.5149 46.8438 43.5376 46.8438 43.5438 46.8438C43.7954 46.8438 44.2265 46.6746 44.8431 46.2539C45.2247 45.994 45.5526 45.7341 45.8785 45.4722C46.0806 45.3113 46.2848 45.1484 46.5014 44.9875C47.0768 44.5564 47.5739 44.2677 47.939 44.0841C48.1257 43.9894 48.3171 43.904 48.5123 43.8284L48.5536 43.8119L48.568 43.8078L48.5742 43.8057H48.5763L48.9063 44.7813L48.5783 43.8036C48.8363 43.7197 49.117 43.7408 49.3596 43.8624C49.6021 43.984 49.787 44.1963 49.8741 44.4532C49.9612 44.7102 49.9435 44.9911 49.8249 45.2351C49.7063 45.4791 49.4963 45.6666 49.2404 45.7568L49.2321 45.7609C49.1094 45.8105 48.989 45.8656 48.8712 45.9259C48.6031 46.0579 48.2091 46.2848 47.7368 46.6396C47.6151 46.7283 47.4584 46.8541 47.2769 46.9984C46.9036 47.2934 46.4333 47.6667 46.0023 47.9596C45.3629 48.3968 44.474 48.9083 43.5438 48.9083C42.6445 48.9083 41.9948 48.3618 41.5926 47.842C41.2009 47.3126 40.917 46.7113 40.7573 46.0724C40.5305 45.1999 40.3531 44.6286 40.1468 44.2368C39.9612 43.8903 39.7962 43.7583 39.5982 43.6799C39.4291 43.618 39.0929 43.6118 38.371 44.1048C37.7255 44.542 37.0201 45.2041 36.1889 45.9858L35.9826 46.1776C35.0937 47.0129 34.0851 47.941 32.9941 48.6567C31.901 49.3744 30.6428 49.9375 29.2445 49.9375Z" fill="#5272FB"/>
</g>
<defs>
<filter id="filter0_f_9_68" x="0" y="0" width="72" height="72" filterUnits="userSpaceOnUse" color-interpolation-filters="sRGB">
<feFlood flood-opacity="0" result="BackgroundImageFix"/>
<feBlend mode="normal" in="SourceGraphic" in2="BackgroundImageFix" result="shape"/>
<feGaussianBlur stdDeviation="0.5" result="effect1_foregroundBlur_9_68"/>
</filter>
<filter id="filter1_d_9_68" x="17.0635" y="21.1775" width="36.8652" height="36.76" filterUnits="userSpaceOnUse" color-interpolation-filters="sRGB">
<feFlood flood-opacity="0" result="BackgroundImageFix"/>
<feColorMatrix in="SourceAlpha" type="matrix" values="0 0 0 0 0 0 0 0 0 0 0 0 0 0 0 0 0 0 127 0" result="hardAlpha"/>
<feOffset dy="4"/>
<feGaussianBlur stdDeviation="2"/>
<feComposite in2="hardAlpha" operator="out"/>
<feColorMatrix type="matrix" values="0 0 0 0 0.321569 0 0 0 0 0.447059 0 0 0 0 0.984314 0 0 0 0.39 0"/>
<feBlend mode="normal" in2="BackgroundImageFix" result="effect1_dropShadow_9_68"/>
<feBlend mode="normal" in="SourceGraphic" in2="effect1_dropShadow_9_68" result="shape"/>
</filter>
</defs>
</svg>
