<svg width="52" height="52" viewBox="0 0 52 52" fill="none" xmlns="http://www.w3.org/2000/svg">
<g filter="url(#filter0_f_9_146)">
<circle cx="26" cy="26" r="25" fill="#5272FB" fill-opacity="0.2"/>
</g>
<g filter="url(#filter1_d_9_146)">
<path d="M23.6924 14.144C20.9075 14.144 18.6727 16.0567 18.6727 19.712C18.6727 22.0991 19.6235 24.5305 21.0672 26.0287C21.6302 27.5268 20.6149 28.0844 20.4044 28.1637C17.4902 29.2327 14.0859 31.1711 14.0859 33.0967V33.8167C14.0859 36.441 19.0835 37.0474 23.7201 37.0474C24.7307 37.0457 25.7409 37.0076 26.7487 36.933C25.4867 35.6009 24.7848 33.8349 24.7881 32C24.7881 30.3468 25.3512 28.832 26.2872 27.6154C26.1487 27.2905 26.0933 26.7782 26.3453 26C27.7807 24.5 28.7112 22.0899 28.7112 19.7111C28.7112 16.0567 26.4736 14.145 23.6915 14.145L23.6924 14.144ZM32.0001 26.1727C30.4547 26.1727 28.9726 26.7866 27.8798 27.8793C26.7871 28.9721 26.1732 30.4542 26.1732 31.9996C26.1732 33.545 26.7871 35.0271 27.8798 36.1198C28.9726 37.2126 30.4547 37.8265 32.0001 37.8265C33.5455 37.8265 35.0276 37.2126 36.1203 36.1198C37.2131 35.0271 37.827 33.545 37.827 31.9996C37.827 30.4542 37.2131 28.9721 36.1203 27.8793C35.0276 26.7866 33.5455 26.1727 32.0001 26.1727ZM31.1924 28.7693H32.8078V31.1637H35.2022V32.8364H32.8078V35.2308H31.1924V32.8364H28.7693V31.1637H31.1924V28.7693Z" fill="#5272FB"/>
</g>
<defs>
<filter id="filter0_f_9_146" x="0" y="0" width="52" height="52" filterUnits="userSpaceOnUse" color-interpolation-filters="sRGB">
<feFlood flood-opacity="0" result="BackgroundImageFix"/>
<feBlend mode="normal" in="SourceGraphic" in2="BackgroundImageFix" result="shape"/>
<feGaussianBlur stdDeviation="0.5" result="effect1_foregroundBlur_9_146"/>
</filter>
<filter id="filter1_d_9_146" x="10.0859" y="14.144" width="31.7412" height="31.6825" filterUnits="userSpaceOnUse" color-interpolation-filters="sRGB">
<feFlood flood-opacity="0" result="BackgroundImageFix"/>
<feColorMatrix in="SourceAlpha" type="matrix" values="0 0 0 0 0 0 0 0 0 0 0 0 0 0 0 0 0 0 127 0" result="hardAlpha"/>
<feOffset dy="4"/>
<feGaussianBlur stdDeviation="2"/>
<feComposite in2="hardAlpha" operator="out"/>
<feColorMatrix type="matrix" values="0 0 0 0 0.321569 0 0 0 0 0.447059 0 0 0 0 0.984314 0 0 0 0.39 0"/>
<feBlend mode="normal" in2="BackgroundImageFix" result="effect1_dropShadow_9_146"/>
<feBlend mode="normal" in="SourceGraphic" in2="effect1_dropShadow_9_146" result="shape"/>
</filter>
</defs>
</svg>
